<svg width="169" height="144" viewBox="0 0 169 144" fill="none" xmlns="http://www.w3.org/2000/svg">
<g clip-path="url(#clip0_1829:672)">
<path d="M40.7533 55.7877C39.773 54.5175 38.3877 53.3422 38.2999 51.7749C38.2195 50.3373 39.2914 48.91 38.8394 47.5347C38.4917 46.4772 37.345 45.8391 36.2244 45.5012C34.0791 44.8636 31.7832 44.952 29.6932 45.7527L29.8067 45.6727C28.5311 45.2183 27.04 45.6874 26.0364 46.5562C25.0327 47.425 24.4363 48.6293 23.9735 49.8361C23.5106 51.0429 23.152 52.2938 22.509 53.4252C21.8658 54.5566 20.8812 55.5855 19.582 55.9766C20.0169 56.8441 21.3765 57.1417 22.1739 56.5439C22.3776 56.3785 22.5607 56.1892 22.7193 55.9801C23.2511 55.3334 23.7829 54.6868 24.3147 54.0401C24.8619 55.0133 24.0445 56.3566 24.7171 57.2576C25.0639 57.7222 25.6974 57.8987 26.2857 58.0253C30.884 59.0064 35.654 58.8295 40.167 57.5104C40.5297 57.4035 40.9298 57.2563 41.0803 56.928C41.2541 56.549 41.0111 56.1217 40.7533 55.7877Z" fill="#2F2E41"/>
<path d="M53.7923 60.7447C53.7635 60.871 53.7448 60.9993 53.7363 61.1284L43.6858 66.9265L41.2429 65.5202L38.6387 68.9295L42.7214 71.8395C43.0512 72.0745 43.4484 72.1963 43.8533 72.1864C44.2582 72.1766 44.649 72.0356 44.967 71.7847L55.3307 63.6087C55.7984 63.7819 56.3078 63.8085 56.791 63.6851C57.2742 63.5617 57.7084 63.2941 58.0358 62.9179C58.3633 62.5417 58.5684 62.0747 58.6239 61.5791C58.6795 61.0835 58.5828 60.5827 58.3468 60.1433C58.1108 59.704 57.7466 59.3469 57.3027 59.1196C56.8588 58.8923 56.3562 58.8055 55.8618 58.8707C55.3674 58.936 54.9045 59.1503 54.5348 59.4851C54.1652 59.8198 53.9061 60.2592 53.7923 60.7447H53.7923Z" fill="#FFB7B7"/>
<path d="M43.3494 67.2016L40.1012 71.4115C40.0087 71.5313 39.8916 71.6298 39.7577 71.7002C39.6238 71.7706 39.4763 71.8113 39.3252 71.8196C39.1741 71.8279 39.0231 71.8035 38.8823 71.7481C38.7415 71.6927 38.6143 71.6077 38.5093 71.4987L34.8321 67.6802C34.2218 67.2039 33.8252 66.505 33.7295 65.7368C33.6337 64.9685 33.8466 64.1937 34.3213 63.5822C34.796 62.9706 35.4938 62.5723 36.2618 62.4746C37.0298 62.3768 37.8051 62.5876 38.4179 63.0608L43.03 65.6397C43.162 65.7136 43.2766 65.815 43.3659 65.9372C43.4551 66.0593 43.5171 66.1993 43.5474 66.3475C43.5777 66.4957 43.5757 66.6487 43.5415 66.7961C43.5074 66.9435 43.4419 67.0818 43.3495 67.2016H43.3494Z" fill="#83C389"/>
<path d="M38.8796 140.556L41.7478 140.556L43.1123 129.492L38.8789 129.492L38.8796 140.556Z" fill="#FFB7B7"/>
<path d="M38.1484 139.619L43.7972 139.619H43.7975C44.7522 139.619 45.6678 139.998 46.3429 140.674C47.018 141.349 47.3972 142.264 47.3973 143.219V143.336L38.1486 143.336L38.1484 139.619Z" fill="#2F2E41"/>
<path d="M19.227 140.556L22.0954 140.556L23.4599 129.492L19.2266 129.492L19.227 140.556Z" fill="#FFB7B7"/>
<path d="M18.4941 139.619L24.1429 139.619H24.1432C25.0979 139.619 26.0135 139.998 26.6886 140.674C27.3637 141.349 27.743 142.264 27.743 143.219V143.336L18.4943 143.336L18.4941 139.619Z" fill="#2F2E41"/>
<path d="M37.1577 54.2246C37.4565 51.5032 35.4925 49.0548 32.7711 48.7561C30.0497 48.4574 27.6014 50.4213 27.3026 53.1428C27.0039 55.8642 28.9679 58.3125 31.6893 58.6112C34.4107 58.91 36.859 56.946 37.1577 54.2246Z" fill="#FFB7B7"/>
<path d="M35.1305 61.1152L38.0508 62.562C38.0508 62.562 41.3138 68.2325 39.4421 73.6137C38.5334 76.2263 41.0923 84.5545 41.0923 84.5545C41.0923 84.5545 45.0572 122.278 45.0697 133.921C40.144 134.678 35.4647 135.614 35.2308 133.274C34.9968 130.934 32.4357 103.271 32.4357 103.271C32.4357 103.271 28.9138 133.976 26.1062 134.444C23.2987 134.912 17.6836 134.21 17.6836 134.21C17.6836 134.21 22.1414 89.2337 25.1829 86.4262L25.6508 84.0865L25.6383 63.0854L29.1425 61.4131L35.1305 61.1152Z" fill="#2F2E41"/>
<path d="M24.6834 92.9971C25.0066 92.8222 25.2875 92.5786 25.5063 92.2835C25.7251 91.9883 25.8766 91.6487 25.95 91.2887C26.0234 90.9287 26.017 90.5569 25.9312 90.1996C25.8454 89.8424 25.6823 89.5082 25.4534 89.2208L28.8498 66.5822L24.4125 66.3691L21.765 88.9141C21.3076 89.3306 21.0189 89.9005 20.9536 90.5157C20.8883 91.1308 21.0509 91.7486 21.4106 92.2519C21.7704 92.7551 22.3022 93.109 22.9054 93.2463C23.5086 93.3837 24.1412 93.295 24.6834 92.9971Z" fill="#FFB7B7"/>
<path d="M28.7523 72.2557L23.4455 71.9207C23.2945 71.9112 23.1473 71.8692 23.014 71.7977C22.8807 71.7261 22.7644 71.6267 22.6729 71.5062C22.5815 71.3856 22.5171 71.2468 22.4842 71.0991C22.4513 70.9514 22.4506 70.7984 22.4821 70.6504L23.5879 65.4658C23.6409 64.6934 23.9981 63.9736 24.5811 63.4643C25.1641 62.9549 25.9252 62.6975 26.6977 62.7486C27.4702 62.7996 28.1909 63.1549 28.7018 63.7365C29.2127 64.3182 29.472 65.0787 29.423 65.8513L29.8677 71.1167C29.8804 71.2675 29.8605 71.4192 29.8092 71.5616C29.758 71.7039 29.6767 71.8336 29.5708 71.9416C29.465 72.0497 29.3371 72.1337 29.1958 72.188C29.0546 72.2422 28.9033 72.2653 28.7523 72.2557H28.7523Z" fill="#83C389"/>
<path d="M37.4247 50.4629C37.2315 49.5866 36.6041 48.8606 35.8813 48.3289C34.6898 47.4524 33.2286 47.0215 31.7522 47.1113C30.2757 47.2011 28.8775 47.8058 27.8009 48.8202C27.1994 49.3515 26.7658 50.0466 26.553 50.8204C26.4515 51.2072 26.4461 51.6129 26.5372 52.0023C26.6284 52.3916 26.8133 52.7528 27.0759 53.0543L27.1749 53.1164C27.0851 52.7355 27.381 52.3549 27.7345 52.1868C28.1021 52.0519 28.4858 51.9659 28.8758 51.9309C29.4659 51.8194 30.0252 51.5825 30.5159 51.2363C31.0066 50.89 31.4172 50.4425 31.72 49.9239C31.9444 50.5622 32.3029 51.145 32.7713 51.6331C33.2398 52.1213 33.8073 52.5035 34.4357 52.754C35.0909 53.0103 36.8904 53.3626 37.5142 53.0373C38.3098 52.6224 37.6179 51.3392 37.4247 50.4629Z" fill="#2F2E41"/>
<path d="M0.950859 133.72C1.80859 134.022 2.7295 134.097 3.62489 133.939C4.52028 133.782 5.35997 133.396 6.06305 132.82C7.85359 131.317 8.41508 128.841 8.87174 126.549L10.2228 119.768L7.39424 121.715C5.35995 123.116 3.27997 124.562 1.87159 126.59C0.463197 128.619 -0.151244 131.389 0.980023 133.584" fill="#E6E6E6"/>
<path d="M1.38652 142.404C1.0305 139.81 0.664199 137.183 0.914525 134.561C1.13636 132.233 1.84671 129.959 3.29287 128.094C4.06048 127.106 4.99453 126.26 6.05301 125.593C6.32896 125.419 6.583 125.856 6.30823 126.03C4.47671 127.187 3.06008 128.896 2.26257 130.911C1.3818 133.151 1.24037 135.593 1.39208 137.973C1.48379 139.412 1.67865 140.841 1.87436 142.269C1.88981 142.334 1.88016 142.402 1.84737 142.46C1.81457 142.517 1.76108 142.56 1.69771 142.58C1.63305 142.598 1.56413 142.589 1.50591 142.556C1.44768 142.523 1.40485 142.468 1.38669 142.404L1.38652 142.404Z" fill="#F2F2F2"/>
<path d="M3.94922 138.241C4.31702 138.8 4.82267 139.255 5.41741 139.562C6.01216 139.869 6.67597 140.018 7.34488 139.994C9.06428 139.912 10.4971 138.713 11.7868 137.573L15.6024 134.204L13.0772 134.084C11.2612 133.997 9.39838 133.915 7.6687 134.476C5.93901 135.036 4.34384 136.384 4.02761 138.174" fill="#E6E6E6"/>
<path d="M0.380917 143.895C2.09493 140.862 4.08286 137.492 7.63529 136.415C8.62295 136.116 9.65856 136.009 10.6864 136.099C11.0104 136.127 10.9295 136.627 10.6061 136.599C8.88323 136.456 7.16364 136.911 5.73687 137.887C4.36387 138.822 3.29481 140.121 2.39009 141.499C1.83584 142.343 1.3394 143.223 0.842966 144.101C0.684338 144.382 0.220441 144.179 0.380917 143.895Z" fill="#F2F2F2"/>
<path d="M116.203 87.8274C112.986 83.5232 107.1 82.4844 104.174 84.6703C101.249 86.8561 100.577 92.7959 103.794 97.1001C106.771 101.084 112.164 102.171 115.135 100.678C115.126 100.725 115.125 100.773 115.134 100.82L115.301 101.648C115.314 101.711 115.343 101.77 115.384 101.818C115.426 101.867 115.48 101.905 115.54 101.927C115.601 101.949 115.666 101.956 115.73 101.946C115.793 101.936 115.853 101.91 115.904 101.87L117.322 100.762C117.373 100.723 117.413 100.671 117.438 100.611C117.463 100.552 117.472 100.487 117.465 100.423C117.458 100.359 117.435 100.298 117.398 100.246C117.36 100.193 117.31 100.151 117.252 100.123L116.489 99.7605C116.462 99.7485 116.434 99.7396 116.405 99.7342C118.695 97.3132 119.186 91.8202 116.203 87.8274Z" fill="#CCCCCC"/>
<path d="M109.168 86.1996C110.741 86.4495 112.159 87.294 113.127 88.5586C114.096 89.8232 114.542 91.4116 114.374 92.9957C114.339 93.3586 114.906 93.3562 114.941 92.9957C115.103 91.2883 114.614 89.5826 113.571 88.2209C112.528 86.8591 111.009 85.9419 109.319 85.6531C108.962 85.5925 108.808 86.1385 109.168 86.1996Z" fill="white"/>
<path d="M121.446 13.4241C124.258 8.84539 123.049 2.99128 119.938 1.08024C116.826 -0.830813 111.058 0.738538 108.246 5.3172C105.643 9.55531 106.626 14.9691 109.11 17.1786C109.063 17.1869 109.018 17.2041 108.978 17.2292L108.27 17.6907C108.216 17.7259 108.172 17.7743 108.142 17.8313C108.112 17.8883 108.097 17.952 108.099 18.0164C108.101 18.0807 108.119 18.1437 108.151 18.1991C108.184 18.2546 108.23 18.3008 108.286 18.3333L109.839 19.2421C109.895 19.2746 109.958 19.2924 110.022 19.2938C110.087 19.2951 110.151 19.2799 110.207 19.2498C110.264 19.2196 110.313 19.1753 110.348 19.1213C110.382 19.0672 110.403 19.0051 110.407 18.9408L110.463 18.0978C110.464 18.0684 110.462 18.0389 110.456 18.01C113.552 19.2439 118.838 17.6714 121.446 13.4241Z" fill="#CCCCCC"/>
<path d="M120.357 6.28559C120.706 7.83998 120.445 9.46898 119.628 10.8363C118.81 12.2037 117.499 13.205 115.965 13.6337C115.615 13.7356 115.826 14.2616 116.174 14.1603C117.821 13.6804 119.225 12.5957 120.105 11.1238C120.986 9.65185 121.277 7.9015 120.921 6.22376C120.845 5.86984 120.281 5.92905 120.357 6.28559Z" fill="white"/>
<path d="M71.6131 35.1489C71.378 29.7808 67.0976 25.6083 63.4494 25.7681C59.8012 25.9279 55.902 30.4587 56.1371 35.8268C56.3547 40.7956 60.2009 44.7301 63.4966 45.169C63.4625 45.2021 63.4349 45.2414 63.4156 45.2849L63.0878 46.0635C63.0628 46.1229 63.0535 46.1877 63.0605 46.2517C63.0676 46.3157 63.0909 46.3768 63.1283 46.4293C63.1657 46.4817 63.2158 46.5238 63.274 46.5514C63.3322 46.579 63.3964 46.5913 63.4607 46.5871L65.2568 46.4698C65.321 46.4656 65.3832 46.4451 65.4372 46.4101C65.4913 46.3751 65.5356 46.3269 65.5658 46.2701C65.596 46.2132 65.6112 46.1495 65.6099 46.0851C65.6086 46.0208 65.5909 45.9578 65.5584 45.9022L65.1321 45.1727C65.1167 45.1477 65.0984 45.1245 65.0775 45.1037C68.3331 44.392 71.8313 40.1285 71.6131 35.1489Z" fill="#83C389"/>
<path d="M66.7123 29.8438C67.8719 30.936 68.568 32.4318 68.6567 34.0224C68.7454 35.613 68.2201 37.177 67.1891 38.3914C66.9563 38.6719 67.4262 38.9891 67.6575 38.7105C68.7528 37.3906 69.3086 35.7055 69.2134 33.993C69.1183 32.2805 68.3792 30.6673 67.1445 29.4769C66.8838 29.226 66.4497 29.5909 66.7123 29.8438Z" fill="white"/>
<path d="M88.3402 70.7606C86.9339 70.672 85.5687 70.2514 84.3564 69.5333C83.1441 68.8153 82.1192 67.8201 81.3658 66.6294C81.1547 66.2919 80.8791 65.9209 81.0252 65.5055C81.0761 65.3462 81.1796 65.2088 81.3187 65.116C81.4577 65.0231 81.6242 64.9801 81.7909 64.9941C82.2218 65.0465 82.4999 65.4681 82.553 65.8721C82.6133 66.3303 82.29 66.69 81.8909 66.8603C80.9156 67.2763 79.9316 66.6334 79.1371 66.1203C77.3269 64.9511 75.3358 63.8937 73.1423 63.7604C71.1129 63.6372 68.9366 64.4329 67.8077 66.1928C67.6102 66.5008 68.1006 66.7853 68.2971 66.4789C69.4166 64.7335 71.6798 64.1066 73.6476 64.3764C74.8203 64.5614 75.9526 64.9459 76.9956 65.513C77.5364 65.7937 78.061 66.1049 78.575 66.432C79.064 66.7732 79.5825 67.0704 80.1241 67.32C81.0274 67.6911 82.2232 67.6621 82.8541 66.8078C83.4428 66.0108 82.9879 64.6839 82.0033 64.4598C81.7873 64.4172 81.5642 64.4289 81.3538 64.4938C81.1435 64.5587 80.9525 64.6748 80.7981 64.8316C80.6436 64.9885 80.5305 65.1812 80.4689 65.3925C80.4072 65.6039 80.399 65.8272 80.4449 66.0425C80.5431 66.5118 80.8966 66.9711 81.1701 67.3548C81.9921 68.511 83.0629 69.4682 84.3038 70.1557C85.5447 70.8432 86.924 71.2436 88.3402 71.3273C88.7048 71.3454 88.7038 70.7786 88.3402 70.7606L88.3402 70.7606Z" fill="#CCCCCC"/>
<path d="M142.768 31.7126C144.319 30.9908 146.224 30.7541 147.803 31.4249C149.382 32.0956 150.458 33.8148 149.948 35.3364C149.716 36.0262 149.189 36.7046 149.395 37.4013C149.553 37.9376 150.104 38.2917 150.646 38.5434C151.187 38.7952 151.78 39.0068 152.171 39.4314C152.563 39.856 152.645 40.5869 152.156 40.9162C151.994 41.0247 151.793 41.0761 151.637 41.1904C151.503 41.2987 151.407 41.4458 151.362 41.6113C151.316 41.7767 151.323 41.9523 151.382 42.1136C151.512 42.4379 151.728 42.7212 152.005 42.9336C152.561 43.4126 153.295 43.9608 153.122 44.6408C153.058 44.8225 152.951 44.9861 152.811 45.1178C152.67 45.2494 152.5 45.3451 152.314 45.3968C151.929 45.508 151.529 45.5608 151.128 45.5534L134.738 46.0697C134.197 46.1104 133.652 46.08 133.119 45.9793C132.86 45.9321 132.614 45.8318 132.395 45.6849C132.176 45.538 131.99 45.3476 131.848 45.1256C131.535 44.5446 131.741 43.829 132.128 43.2865C132.516 42.744 133.064 42.316 133.518 41.8179C133.971 41.3198 134.342 40.6979 134.262 40.0541C134.198 39.5387 133.858 39.0933 133.614 38.625C133.37 38.1567 133.228 37.5715 133.544 37.1407C133.99 36.5337 135.059 36.5886 135.565 36.0229C135.947 35.596 135.873 34.9814 135.911 34.431C136.003 33.1068 136.92 31.8563 138.225 31.2755C138.888 30.9907 139.61 30.8677 140.331 30.9168C141.051 30.9658 141.75 31.1855 142.368 31.5578L142.768 31.7126Z" fill="#2F2E41"/>
<path d="M162.729 97.2407V99.9211L152.391 101.196L152.391 97.2402L162.729 97.2407Z" fill="#9E616A"/>
<path d="M165.327 96.5568L165.327 105.199H165.217C164.325 105.199 163.47 104.845 162.839 104.214C162.208 103.583 161.854 102.728 161.854 101.835V101.835L161.854 96.5566L165.327 96.5568Z" fill="#2F2E41"/>
<path d="M149.949 101.8L149.29 104.398L138.955 103.097L139.926 99.2617L149.949 101.8Z" fill="#9E616A"/>
<path d="M152.633 101.775L150.511 110.153L150.405 110.126C149.54 109.907 148.798 109.353 148.341 108.587C147.885 107.82 147.751 106.904 147.97 106.039L147.97 106.039L149.266 100.922L152.633 101.775Z" fill="#2F2E41"/>
<path d="M147.309 71.7422L147.867 72.3237C147.867 72.3237 151.51 75.1801 148.815 82.7044L144.406 95.4047L159.183 95.9809L158.867 101.784C158.867 101.784 137.437 102.976 137.624 99.4447C137.812 95.913 138.603 82.8364 138.603 82.8364L134.15 79.2609L135.224 73.2136L147.309 71.7422Z" fill="#2F2E41"/>
<path d="M135.862 77.5059L134.15 79.261L128.41 95.0385C128.41 95.0385 127.536 98.9739 129.504 99.8484C131.471 100.723 144.132 105.615 144.132 105.615L145.425 100.962L135.67 95.1065L140.217 89.1355L140.901 79.7245L135.862 77.5059Z" fill="#2F2E41"/>
<path d="M135.953 49.6709L150.522 46.7578L150.838 54.7507L147.065 62.7942L147.867 72.3221L134.81 74.6033L135.219 62.0749C135.219 62.0749 131.713 57.1283 133.778 52.1425L135.953 49.6709Z" fill="#E4E4E4"/>
<path d="M168.439 30.7102C168.512 31.0457 168.51 31.3931 168.434 31.728C168.359 32.0629 168.21 32.3771 168 32.6485C167.79 32.9199 167.522 33.1418 167.217 33.2987C166.911 33.4556 166.575 33.5437 166.232 33.5566L152.262 49.7566L149.014 45.8147L163.768 31.1302C163.784 30.5523 164.012 30.0005 164.408 29.5795C164.804 29.1584 165.341 28.8972 165.917 28.8454C166.492 28.7937 167.067 28.9549 167.532 29.2986C167.997 29.6423 168.319 30.1445 168.439 30.7102Z" fill="#9E616A"/>
<path d="M155.303 47.9889C155.307 48.1402 155.277 48.2904 155.217 48.4293C155.157 48.5682 155.068 48.6925 154.955 48.7937L151.027 52.3301C150.534 52.9269 149.824 53.3039 149.054 53.3783C148.283 53.4528 147.514 53.2187 146.916 52.7273C146.318 52.2359 145.939 51.5274 145.862 50.757C145.785 49.9866 146.017 49.2172 146.507 48.6175L149.249 44.0788C149.327 43.9493 149.432 43.8381 149.558 43.753C149.683 43.6678 149.825 43.6106 149.974 43.5852C150.123 43.5598 150.276 43.5669 150.422 43.606C150.568 43.6451 150.704 43.7152 150.821 43.8116L154.921 47.1994C155.038 47.2958 155.133 47.4162 155.199 47.5524C155.264 47.6887 155.3 47.8375 155.303 47.9889Z" fill="#E4E4E4"/>
<path d="M113.108 68.7824C113.086 68.4397 113.14 68.0964 113.265 67.7767C113.39 67.457 113.584 67.1686 113.833 66.9318C114.082 66.6951 114.379 66.5157 114.705 66.4064C115.03 66.2972 115.376 66.2606 115.717 66.2992L131.96 52.3789L134.58 56.7636L117.789 69.0681C117.687 69.6369 117.378 70.1482 116.924 70.5051C116.469 70.862 115.899 71.0397 115.322 71.0045C114.745 70.9693 114.201 70.7236 113.793 70.3141C113.385 69.9045 113.141 69.3595 113.108 68.7824V68.7824Z" fill="#9E616A"/>
<path d="M128.689 53.6687C128.708 53.5186 128.76 53.3745 128.84 53.2461C128.92 53.1178 129.027 53.0083 129.153 52.9251L133.568 50.0183C134.145 49.5021 134.903 49.2358 135.676 49.2777C136.449 49.3197 137.174 49.6665 137.692 50.2422C138.21 50.8178 138.478 51.5753 138.439 52.3485C138.399 53.1217 138.054 53.8476 137.48 54.3671L134.088 58.4429C133.991 58.5593 133.87 58.6533 133.734 58.7188C133.597 58.7842 133.448 58.8195 133.297 58.8222C133.146 58.8249 132.996 58.7949 132.857 58.7343C132.718 58.6738 132.594 58.584 132.493 58.4712L128.948 54.5065C128.847 54.3937 128.771 54.2605 128.727 54.1159C128.682 53.9713 128.669 53.8187 128.689 53.6687Z" fill="#E4E4E4"/>
<path d="M142.163 45.9428C145.128 45.9428 147.533 43.5386 147.533 40.5729C147.533 37.6073 145.128 35.2031 142.163 35.2031C139.197 35.2031 136.793 37.6073 136.793 40.5729C136.793 43.5386 139.197 45.9428 142.163 45.9428Z" fill="#9E616A"/>
<path d="M147.656 39.8088C145.96 39.6726 144.552 37.9785 144.728 36.2864C144.748 36.9839 144.511 37.6643 144.062 38.1983C143.613 38.7322 142.983 39.0825 142.292 39.1824C141.515 39.2681 140.662 39.0327 139.985 39.4251C139.235 39.8598 138.995 40.9153 138.214 41.2907C137.459 41.6534 136.5 41.1587 136.127 40.4089C135.754 39.659 135.846 38.7582 136.093 37.958C136.445 36.8169 137.087 35.7864 137.956 34.9668C138.824 34.1472 139.89 33.5664 141.05 33.2808C142.21 32.9952 143.424 33.0147 144.574 33.3372C145.724 33.6597 146.77 34.2743 147.612 35.1212C148.325 35.8385 148.892 36.7525 148.983 37.7597C149.075 38.7669 148.608 39.8598 147.704 40.3122L147.656 39.8088Z" fill="#2F2E41"/>
<path d="M68.8238 143.683H-14.4747C-14.5327 143.683 -14.5883 143.66 -14.6293 143.619C-14.6703 143.578 -14.6934 143.523 -14.6934 143.465C-14.6934 143.407 -14.6703 143.351 -14.6293 143.31C-14.5883 143.269 -14.5327 143.246 -14.4747 143.246H68.8238C68.8818 143.246 68.9374 143.269 68.9784 143.31C69.0194 143.351 69.0425 143.407 69.0425 143.465C69.0425 143.523 69.0194 143.578 68.9784 143.619C68.9374 143.66 68.8818 143.683 68.8238 143.683Z" fill="#CACACA"/>
</g>
<defs>
<clipPath id="clip0_1829:672">
<rect width="168.49" height="144" fill="white"/>
</clipPath>
</defs>
</svg>
