<svg width="82" height="17" viewBox="0 0 82 17" fill="none" xmlns="http://www.w3.org/2000/svg">
<path d="M27.4416 14.8321C26.3972 13.8145 25.875 12.4796 25.875 10.8275C25.875 9.17531 26.4037 7.84692 27.461 6.8423C28.5174 5.83676 29.8292 5.33398 31.3962 5.33398C32.9633 5.33398 34.2755 5.83676 35.3329 6.8423C36.3902 7.84877 36.9189 9.17716 36.9189 10.8275C36.9189 12.4778 36.387 13.8127 35.3231 14.8321C34.2602 15.8497 32.942 16.3584 31.3685 16.3584C29.795 16.3584 28.486 15.8497 27.4416 14.8321ZM31.3685 14.0578C31.7362 14.0613 32.1006 13.9884 32.4386 13.8437C32.7766 13.6989 33.0808 13.4855 33.3319 13.2169C33.8787 12.6554 34.1525 11.8622 34.1534 10.8372C34.1543 9.81222 33.8833 9.02222 33.3403 8.46718C33.0889 8.19988 32.7846 7.98783 32.4468 7.8445C32.109 7.70116 31.7451 7.62969 31.3782 7.63462C31.014 7.62888 30.6528 7.70007 30.318 7.84354C29.9833 7.987 29.6826 8.19952 29.4356 8.46718C28.9064 9.02222 28.6423 9.81546 28.6433 10.8469C28.6442 11.8783 28.9083 12.6716 29.4356 13.2266C29.6812 13.4934 29.9803 13.7053 30.3133 13.8485C30.6464 13.9917 31.006 14.063 31.3685 14.0578Z" fill="#339698"/>
<path d="M41.6597 5.48801V7.38346C42.3812 6.01714 43.4256 5.33398 44.7929 5.33398V8.11889H44.1157C43.3035 8.11889 42.6911 8.32194 42.2785 8.72804C41.8659 9.13415 41.6597 9.83396 41.6597 10.8275V16.2044H38.9316V5.48801H41.6597Z" fill="#339698"/>
<path d="M50.9234 13.9218H52.2194V16.2043H50.4988C49.4026 16.2043 48.5575 15.9532 47.9636 15.4509C47.3698 14.9486 47.0733 14.116 47.0742 12.9532V7.71226H45.9336V5.49211H47.0742V2.8418H49.8022V5.49211H52.2V7.71226H49.8022V12.9546C49.8022 13.3024 49.8859 13.5508 50.0534 13.6997C50.2208 13.8487 50.5108 13.9227 50.9234 13.9218Z" fill="#339698"/>
<path d="M57.4044 2.76212C57.4062 2.98036 57.3648 3.1968 57.2824 3.39892C57.2001 3.60105 57.0785 3.78484 56.9247 3.93969C56.7709 4.09453 56.5879 4.21734 56.3863 4.30102C56.1848 4.38471 55.9686 4.42761 55.7504 4.42723C55.5326 4.43099 55.3164 4.38995 55.1152 4.30664C54.9139 4.22333 54.732 4.09954 54.5806 3.94296C54.3827 3.75115 54.2354 3.51321 54.1521 3.25047C54.0688 2.98773 54.052 2.70842 54.1032 2.43759C54.1545 2.16677 54.2722 1.9129 54.4457 1.69876C54.6192 1.48462 54.8432 1.31691 55.0976 1.21068C55.3519 1.10444 55.6286 1.06301 55.9029 1.09009C56.1772 1.11717 56.4405 1.21192 56.6692 1.36583C56.8978 1.51975 57.0847 1.72802 57.213 1.97197C57.3413 2.21591 57.4071 2.48789 57.4044 2.7635V2.76212ZM54.3877 16.2051V5.48874H57.1144V16.2051H54.3877Z" fill="#339698"/>
<path d="M62.781 16.2031H60.0488V1.88867H62.7768V10.0755L66.3929 5.49642H70.0881L65.33 10.908L70.0881 16.2073H66.4554L62.781 11.7392V16.2031Z" fill="#339698"/>
<path d="M72.1937 14.8068C71.2325 13.7689 70.752 12.4438 70.752 10.8314C70.752 9.219 71.2293 7.90032 72.184 6.87535C73.1368 5.85038 74.3491 5.33789 75.8208 5.33789C77.2926 5.33789 78.4143 5.94381 79.1858 7.15564V5.49053H81.8943V16.2069H79.1858V14.4031C78.3745 15.7055 77.2464 16.3568 75.8014 16.3568C75.1239 16.3733 74.4509 16.2434 73.8282 15.9759C73.2056 15.7084 72.648 15.3096 72.1937 14.8068ZM78.3352 13.1625C78.9022 12.6001 79.1858 11.8295 79.1858 10.8508C79.1858 9.87209 78.9022 9.10151 78.3352 8.53908C78.0773 8.27306 77.7687 8.06138 77.4276 7.91652C77.0866 7.77167 76.72 7.69658 76.3495 7.69567C75.979 7.69477 75.612 7.76807 75.2703 7.91125C74.9285 8.05444 74.6189 8.26461 74.3597 8.52936C73.7991 9.0844 73.5184 9.85174 73.5174 10.8314C73.5165 11.811 73.8005 12.5848 74.3694 13.1528C74.6252 13.4208 74.9325 13.6343 75.2729 13.7805C75.6133 13.9267 75.9798 14.0025 76.3502 14.0034C76.7207 14.0043 77.0875 13.9303 77.4286 13.7858C77.7697 13.6413 78.0781 13.4293 78.3352 13.1625Z" fill="#339698"/>
<path d="M8.764 14.922C8.79731 17.1228 5.33803 17.1228 5.37133 14.922C5.33942 12.7213 8.79731 12.7213 8.764 14.922Z" fill="#339698"/>
<path d="M14.5182 4.6178C14.5653 7.84119 9.50061 7.84119 9.54918 4.6178C9.502 1.39303 14.5653 1.39303 14.5182 4.6178Z" fill="#339698"/>
<path d="M20.4818 14.3714C20.5317 17.7808 15.1756 17.7808 15.2269 14.3714C15.177 10.9621 20.5317 10.9621 20.4818 14.3714Z" fill="#339698"/>
<path d="M27.2424 2.87931C27.2965 6.58419 21.4756 6.58419 21.5297 2.87931C21.4742 -0.826958 27.3021 -0.826958 27.2424 2.87931Z" fill="#339698"/>
<path d="M9.12713 14.9239C9.16598 17.5881 4.9796 17.5881 5.01984 14.9239C4.97821 12.2597 9.1632 12.2597 9.12713 14.9239Z" fill="#339698"/>
<path d="M4.36706 7.03526C4.40868 9.86873 -0.0413375 9.86873 0.00029034 7.03526C-0.0413375 4.20179 4.4073 4.20179 4.36706 7.03526Z" fill="#339698"/>
<path d="M3.1027 6.7623L1.7793 7.5625L6.57688 15.497L7.90029 14.6968L3.1027 6.7623Z" fill="#339698"/>
<path d="M23.5259 2.3876L16.9941 13.8809L18.7144 14.8585L25.2462 3.36527L23.5259 2.3876Z" fill="#339698"/>
<path d="M11.2424 4.23343L6.2793 14.5L7.86338 15.2658L12.8264 4.9992L11.2424 4.23343Z" fill="#339698"/>
<path d="M12.794 4.06822L11.2715 4.94727L17.0931 15.0307L18.6157 14.1516L12.794 4.06822Z" fill="#339698"/>
</svg>
