<svg width="158" height="33" viewBox="0 0 158 33" fill="none" xmlns="http://www.w3.org/2000/svg">
<path d="M52.9439 28.8672C50.9293 26.9035 49.9199 24.3248 49.9199 21.1438C49.9199 17.9587 50.9378 15.3969 52.9779 13.4544C55.0179 11.5119 57.55 10.5449 60.574 10.5449C63.598 10.5449 66.13 11.5162 68.1701 13.4544C70.2101 15.3969 71.228 17.9587 71.228 21.1438C71.228 24.329 70.2016 26.9035 68.1489 28.8672C66.0961 30.8351 63.5513 31.8149 60.5188 31.8149C57.4821 31.8149 54.9585 30.8351 52.9439 28.8672ZM60.5188 27.3743C61.9863 27.3743 63.2502 26.8314 64.3063 25.7499C65.3623 24.6683 65.8925 23.1372 65.8925 21.1608C65.8925 19.1844 65.3708 17.6575 64.3232 16.5887C63.2799 15.5199 62.016 14.9855 60.5358 14.9855C59.0556 14.9855 57.8044 15.5199 56.7865 16.5887C55.7644 17.6575 55.2554 19.1886 55.2554 21.1778C55.2554 23.1669 55.7644 24.698 56.7865 25.7668C57.8087 26.8399 59.0514 27.3743 60.5188 27.3743Z" fill="white"/>
<path d="M80.3767 10.8421V14.4981C81.7678 11.86 83.7866 10.541 86.4205 10.541V15.9147H85.1142C83.5449 15.9147 82.3658 16.3049 81.5685 17.0895C80.7711 17.8742 80.3724 19.2229 80.3724 21.1399V31.5141H75.1133V10.8421H80.3767Z" fill="white"/>
<path d="M98.2492 27.1152H100.752V31.5176H97.4307C95.3143 31.5176 93.6856 31.0341 92.5405 30.0628C91.3954 29.0916 90.8228 27.4884 90.8228 25.249V15.1336H88.6216V10.8415H90.8228V5.72656H96.0862V10.8415H100.713V15.1336H96.0862V25.249C96.0862 25.9191 96.2474 26.3984 96.5697 26.6868C96.8963 26.971 97.4561 27.1152 98.2492 27.1152Z" fill="white"/>
<path d="M110.752 5.5788C110.752 6.4737 110.443 7.23289 109.819 7.85635C109.196 8.47982 108.445 8.78943 107.563 8.78943C106.681 8.78943 105.926 8.47982 105.307 7.85635C104.683 7.23713 104.374 6.4737 104.374 5.5788C104.374 4.68389 104.683 3.92471 105.307 3.30124C105.93 2.68202 106.681 2.36816 107.563 2.36816C108.445 2.36816 109.2 2.67778 109.819 3.30124C110.443 3.92471 110.752 4.68389 110.752 5.5788ZM104.933 31.5183V10.8422H110.197V31.5183H104.933Z" fill="white"/>
<path d="M121.127 31.5185H115.863V3.89941H121.127V19.6854L128.108 10.8424H135.237L126.055 21.2928L135.237 31.5185H128.222L121.131 22.896V31.5185H121.127Z" fill="white"/>
<path d="M139.283 28.812C137.43 26.8101 136.505 24.2527 136.505 21.1438C136.505 18.035 137.426 15.4902 139.266 13.5138C141.107 11.5374 143.448 10.5449 146.281 10.5449C149.115 10.5449 151.282 11.7155 152.775 14.0524V10.8418H158V31.5179H152.775V28.0486C151.206 30.5637 149.03 31.8191 146.243 31.8191C143.457 31.8148 141.137 30.8139 139.283 28.812ZM151.133 25.6396C152.228 24.558 152.775 23.0694 152.775 21.1778C152.775 19.2862 152.228 17.8017 151.133 16.7202C150.039 15.6387 148.758 15.0958 147.291 15.0958C145.823 15.0958 144.547 15.6302 143.465 16.699C142.384 17.7678 141.841 19.248 141.841 21.1396C141.841 23.0312 142.388 24.5241 143.482 25.6184C144.576 26.7126 145.853 27.2597 147.308 27.2597C148.763 27.2597 150.039 26.7211 151.133 25.6396Z" fill="white"/>
<path d="M16.9103 29.0497C16.9739 33.2995 10.2982 33.2995 10.3618 29.0497C10.3024 24.7999 16.9739 24.7999 16.9103 29.0497Z" fill="white"/>
<path d="M28.0097 9.16253C28.0988 15.3802 18.3312 15.3802 18.4245 9.16253C18.3312 2.94062 28.0988 2.94062 28.0097 9.16253Z" fill="white"/>
<path d="M39.5162 27.9852C39.6137 34.5635 29.282 34.5635 29.3796 27.9852C29.282 21.4112 39.6137 21.4112 39.5162 27.9852Z" fill="white"/>
<path d="M52.5625 5.81107C52.6685 12.9619 41.4377 12.9619 41.5437 5.81107C41.4377 -1.33546 52.6685 -1.33546 52.5625 5.81107Z" fill="white"/>
<path d="M17.6019 29.0502C17.6783 34.1906 9.60291 34.1906 9.67925 29.0502C9.60291 23.9099 17.674 23.9056 17.6019 29.0502Z" fill="white"/>
<path d="M8.42795 13.8278C8.50853 19.2947 -0.0800204 19.2947 0.000563554 13.8278C-0.0800204 8.3608 8.50853 8.3608 8.42795 13.8278Z" fill="white"/>
<path d="M5.67834 13.0583L3.13965 14.5977L12.3692 29.8188L14.9079 28.2795L5.67834 13.0583Z" fill="white"/>
<path d="M45.3946 4.86632L32.7891 27.042L36.1077 28.9284L48.7132 6.75274L45.3946 4.86632Z" fill="white"/>
<path d="M21.6891 8.42437L12.1128 28.2305L15.1675 29.7074L24.7439 9.90134L21.6891 8.42437Z" fill="white"/>
<path d="M24.6882 8.10721L21.7495 9.80371L32.9825 29.2614L35.9212 27.5649L24.6882 8.10721Z" fill="white"/>
</svg>
